<svg xmlns="http://www.w3.org/2000/svg" xmlns:xlink="http://www.w3.org/1999/xlink" width="80" zoomAndPan="magnify" viewBox="0 0 60 60" height="80" preserveAspectRatio="xMidYMid meet" version="1.0"><path fill="#00175b" d="M 29.058594 59.082031 L 30.429688 60 L 31.796875 59.082031 C 51.59375 45.851562 58.15625 30.179688 57.445312 4.160156 L 53.996094 5.65625 C 51.511719 6.734375 48.859375 7.296875 46.152344 7.296875 C 40.84375 7.296875 35.96875 5.152344 32.105469 1.5625 L 30.429688 0 L 28.75 1.5625 C 24.886719 5.152344 20.015625 7.296875 14.707031 7.296875 C 11.996094 7.296875 9.34375 6.734375 6.859375 5.65625 L 3.410156 4.160156 C 2.699219 30.179688 9.261719 45.851562 29.058594 59.082031 Z M 29.058594 59.082031 " fill-opacity="1" fill-rule="evenodd"/><path fill="#00279b" d="M 57.445312 4.160156 L 53.996094 5.65625 C 51.511719 6.734375 48.859375 7.296875 46.152344 7.296875 C 40.84375 7.296875 35.96875 5.152344 32.105469 1.5625 L 30.429688 0 L 28.75 1.5625 C 24.886719 5.152344 20.015625 7.296875 14.707031 7.296875 C 11.996094 7.296875 9.34375 6.734375 6.859375 5.65625 L 3.410156 4.160156 L 5.878906 7.917969 L 9.570312 12.519531 L 31.285156 9.488281 L 41.980469 10.84375 C 41.980469 10.84375 50.730469 11.21875 54.976562 7.917969 Z M 57.445312 4.160156 " fill-opacity="1" fill-rule="evenodd"/><path fill="#00279b" d="M 29.058594 59.082031 L 30.429688 60 L 31.796875 59.082031 C 36.714844 55.796875 40.816406 52.359375 44.191406 48.648438 L 44.339844 47.121094 L 43.671875 46.667969 L 42.027344 47.480469 L 40.480469 48.757812 L 40.078125 49.363281 L 39.203125 49.875 L 33.363281 51.757812 L 30.429688 57.921875 C 30.429688 57.921875 1.835938 42.578125 3.410156 4.160156 C 2.699219 30.179688 9.261719 45.851562 29.058594 59.082031 Z M 29.058594 59.082031 " fill-opacity="1" fill-rule="evenodd"/><path fill="#5e7cfa" d="M 30.378906 59.964844 L 30.429688 60 L 31.796875 59.082031 C 51.59375 45.851562 58.15625 30.179688 57.445312 4.160156 L 53.996094 5.65625 C 51.511719 6.734375 48.859375 7.296875 46.152344 7.296875 C 40.84375 7.296875 35.96875 5.152344 32.105469 1.5625 L 30.429688 0 L 30.367188 0.0585938 C 30.941406 0.976562 38.820312 12.921875 54.878906 7.917969 C 54.878906 7.917969 53.527344 12.933594 45.863281 14.878906 C 45.863281 14.878906 55.257812 19.167969 48.925781 31.609375 L 49.042969 33.082031 L 47.957031 34.71875 L 42.960938 43.050781 L 41.46875 43.691406 C 38.605469 44.917969 39.925781 48.226562 43.765625 45.941406 C 43.710938 46.394531 44.082031 50.664062 30.378906 59.964844 Z M 30.378906 59.964844 " fill-opacity="1" fill-rule="evenodd"/><path fill="#080a0b" d="M 5.878906 7.917969 C 5.886719 24.101562 10.402344 37.839844 26.039062 45.441406 C 26.039062 45.441406 12.933594 32.722656 18.042969 23.722656 C 16.121094 30.972656 24.460938 39.535156 29.003906 43.945312 C 39.328125 53.96875 26.121094 55.199219 17.167969 44.082031 C 20.878906 49.253906 25.367188 54.539062 30.429688 57.921875 C 45.550781 47.8125 54.039062 29.011719 54.898438 11.085938 C 54.839844 11.921875 54.011719 21.871094 49.023438 31.609375 C 50.582031 27.527344 48.347656 25.617188 48.339844 25.613281 C 48.339844 25.613281 50.730469 20.390625 43.0625 15.890625 C 43.0625 15.890625 43.007812 13.753906 40.730469 11.808594 C 40.730469 11.808594 48.644531 14.050781 54.976562 7.917969 C 52.230469 9.109375 49.257812 9.761719 46.152344 9.761719 C 40.199219 9.761719 34.730469 7.367188 30.429688 3.367188 C 26.125 7.367188 20.660156 9.761719 14.707031 9.761719 C 11.597656 9.761719 8.625 9.109375 5.878906 7.917969 Z M 48.375 33.269531 C 46.0625 33.449219 45.019531 35.597656 42.835938 34.359375 C 42.835938 34.359375 44.1875 36.136719 44.214844 38.960938 C 42.808594 35.375 40.582031 35.734375 42.453125 31.570312 C 42.980469 35.535156 45.714844 32.386719 48.375 33.269531 Z M 48.375 33.269531 " fill-opacity="1" fill-rule="evenodd"/><path fill="#00279b" d="M 12.324219 28.609375 C 8.425781 19.203125 16.617188 20.433594 16.988281 16.363281 C 16.988281 16.363281 19.015625 18.03125 21.042969 16.363281 C 21.042969 16.363281 22.402344 18.558594 25.652344 17.113281 C 25.652344 17.113281 25.679688 18.085938 27.765625 18.277344 C 27.765625 18.277344 28.511719 17.222656 29.847656 16.667969 C 27.761719 19.796875 28.585938 24.324219 33.261719 24 C 33.261719 24 33.511719 25.695312 37.011719 26.917969 C 37.011719 26.917969 37.566406 26.917969 38.066406 26.804688 C 38.585938 29.628906 43.621094 31.441406 44.539062 29.609375 C 44.664062 30.695312 46.566406 30.835938 47.148438 28.386719 C 47.496094 26.929688 46.550781 25.859375 45.953125 24.765625 C 45.953125 24.765625 47.507812 22.488281 45.175781 20.542969 C 45.175781 20.542969 44.730469 18.265625 41.34375 17.347656 C 41.34375 17.347656 41.234375 15.960938 39.707031 15.265625 C 40.316406 14.761719 38.457031 12.449219 38.066406 11.824219 C 38.066406 11.824219 37.457031 11.171875 36.902344 11.308594 C 36.902344 11.308594 35.082031 8.269531 32.082031 12.015625 C 32.082031 12.015625 32.472656 13.042969 34.75 13.265625 C 34.75 13.265625 34.347656 13.683594 34.984375 14.53125 C 34.238281 14.640625 29.078125 11.386719 25.335938 13.585938 C 25.707031 12.125 20.617188 11.761719 20.542969 13.085938 C 19.941406 11.804688 16.171875 12.523438 16.015625 13.765625 C 8.328125 15.199219 7.019531 23.167969 12.324219 28.609375 Z M 40.671875 25.265625 C 40.671875 25.265625 39.410156 26.015625 38.160156 24.429688 C 38.160156 24.429688 35.132812 24.417969 34.214844 22.304688 C 34.214844 22.304688 34.5625 22.75 35.867188 23.042969 C 35.867188 23.042969 35.078125 22.277344 35.617188 20.863281 C 35.617188 20.863281 35.285156 20.292969 34.046875 19.890625 C 38.1875 19.015625 37.652344 24.472656 40.671875 25.265625 Z M 41.269531 26.390625 L 41.019531 27.082031 C 41.019531 27.082031 41.28125 27.636719 42.003906 27.359375 C 41.917969 26.917969 41.550781 26.710938 41.269531 26.390625 Z M 41.269531 26.390625 " fill-opacity="1" fill-rule="evenodd"/><path fill="#00175b" d="M 40.671875 25.265625 C 38.070312 23.574219 38.019531 18.621094 34.046875 19.890625 C 38.1875 19.015625 37.652344 24.472656 40.671875 25.265625 Z M 40.671875 25.265625 " fill-opacity="1" fill-rule="evenodd"/><path fill="#00175b" d="M 12.324219 28.609375 C 8.425781 19.203125 16.617188 20.433594 16.988281 16.363281 C 16.988281 16.363281 19.015625 18.03125 21.042969 16.363281 C 21.042969 16.363281 22.402344 18.558594 25.652344 17.113281 C 25.652344 17.113281 25.679688 18.085938 27.765625 18.277344 C 27.765625 18.277344 28.511719 17.222656 29.847656 16.667969 C 29.847656 16.667969 28.808594 21.921875 33.808594 22.847656 C 33.808594 22.847656 34.527344 24.902344 37.78125 25.003906 C 37.78125 25.003906 39.234375 26.445312 40.671875 25.265625 C 40.671875 25.265625 39.398438 26.796875 40.273438 28.214844 C 40.273438 28.214844 41.714844 30.503906 44.539062 29.609375 C 43.621094 31.441406 38.585938 29.628906 38.066406 26.804688 C 37.566406 26.917969 37.011719 26.917969 37.011719 26.917969 C 33.511719 25.695312 33.261719 24 33.261719 24 C 28.585938 24.324219 27.761719 19.796875 29.847656 16.667969 C 28.359375 15.597656 25.757812 16.539062 25.757812 16.539062 C 24.398438 14.984375 21.039062 15.644531 21.039062 15.644531 C 19.210938 14.484375 16.855469 15.980469 16.855469 15.980469 C 14.667969 15.609375 7.785156 22.398438 12.324219 28.609375 Z M 12.324219 28.609375 " fill-opacity="1" fill-rule="evenodd"/><path fill="#00279b" d="M 37.242188 23.738281 C 37.242188 23.738281 35.644531 23.207031 35.980469 21.183594 C 37.117188 21.5 37.386719 22.78125 36.535156 22.632812 C 36.558594 23.121094 36.957031 23.40625 37.242188 23.738281 Z M 37.242188 23.738281 " fill-opacity="1" fill-rule="evenodd"/><path fill="#5e7cfa" d="M 36.902344 21.855469 C 37.15625 22.285156 37.050781 22.722656 36.535156 22.632812 C 36.535156 22.632812 36.277344 21.882812 36.902344 21.855469 Z M 36.902344 21.855469 " fill-opacity="1" fill-rule="evenodd"/><path fill="#00279b" d="M 35.984375 47.96875 C 35.761719 46.882812 37.621094 46.660156 38.675781 45.660156 C 38.675781 45.660156 35.121094 46.316406 34.300781 44.871094 C 33.484375 43.425781 34.789062 43.523438 35.539062 42.664062 C 35.539062 42.664062 32.445312 43.6875 31.550781 41.582031 C 31.066406 40.445312 33.636719 39.339844 34.371094 38.941406 C 28.785156 41.457031 25.25 36.683594 31.347656 36.101562 C 32.976562 35.945312 33.539062 34.421875 34.78125 34.914062 C 35.726562 35.289062 36.941406 36.484375 36.066406 38.023438 C 38.742188 37.355469 39.832031 39.519531 38.871094 40.664062 C 40.683594 40.070312 42.367188 42.164062 41.566406 43.691406 C 41.566406 43.691406 42.867188 43.898438 43.332031 44.570312 C 46.191406 48.695312 36.683594 51.386719 35.984375 47.96875 Z M 35.984375 47.96875 " fill-opacity="1" fill-rule="evenodd"/><path fill="#00279b" d="M 28.234375 32.679688 C 25.890625 32.4375 25.363281 35.195312 28.472656 35.351562 C 35.003906 35.683594 34.871094 31.960938 31.621094 32.300781 C 29.941406 32.480469 30.210938 32.882812 28.234375 32.679688 Z M 28.234375 32.679688 " fill-opacity="1" fill-rule="evenodd"/><path fill="#00279b" d="M 27.320312 29.519531 C 25.128906 28.988281 23.910156 30.585938 26.859375 31.1875 C 33.054688 32.457031 33.886719 30.164062 30.671875 29.84375 C 29.011719 29.675781 29.167969 29.964844 27.320312 29.519531 Z M 27.320312 29.519531 " fill-opacity="1" fill-rule="evenodd"/><path fill="#00279b" d="M 27.949219 26.832031 C 26.140625 26.058594 24.859375 27.257812 27.3125 28.203125 C 32.464844 30.1875 33.511719 28.332031 30.792969 27.589844 C 29.382812 27.207031 29.476562 27.480469 27.949219 26.832031 Z M 27.949219 26.832031 " fill-opacity="1" fill-rule="evenodd"/><path fill="#00279b" d="M 29.507812 24.796875 C 28.089844 24.023438 26.953125 24.898438 28.875 25.863281 C 32.917969 27.894531 33.921875 26.464844 31.761719 25.644531 C 30.644531 25.21875 30.699219 25.449219 29.507812 24.796875 Z M 29.507812 24.796875 " fill-opacity="1" fill-rule="evenodd"/><path fill="#00175b" d="M 35.984375 47.96875 C 35.761719 46.882812 37.621094 46.660156 38.675781 45.660156 C 38.675781 45.660156 35.121094 46.316406 34.300781 44.871094 C 33.484375 43.425781 34.789062 43.523438 35.539062 42.664062 C 35.539062 42.664062 32.445312 43.6875 31.550781 41.582031 C 31.066406 40.445312 33.636719 39.339844 34.371094 38.941406 C 28.890625 41.410156 25.382812 36.859375 31.015625 36.136719 C 31.019531 36.164062 31.265625 39.457031 35.082031 38.449219 C 35.082031 38.449219 32.554688 42.414062 36.753906 41.835938 C 36.753906 41.835938 35.6875 45.167969 40.019531 44.976562 C 38.445312 45.859375 36.707031 48.316406 40.078125 49.363281 C 39.59375 49.664062 36.375 49.878906 35.984375 47.96875 Z M 35.984375 47.96875 " fill-opacity="1" fill-rule="evenodd"/><path fill="#00175b" d="M 28.234375 32.679688 C 25.890625 32.4375 25.363281 35.195312 28.472656 35.351562 C 29.050781 35.382812 29.578125 35.378906 30.058594 35.351562 C 27.667969 34.710938 28.640625 32.714844 28.640625 32.714844 C 28.515625 32.707031 28.382812 32.695312 28.234375 32.679688 Z M 28.234375 32.679688 " fill-opacity="1" fill-rule="evenodd"/><path fill="#00175b" d="M 27.320312 29.519531 C 25.128906 28.988281 23.910156 30.585938 26.859375 31.1875 C 27.261719 31.269531 27.640625 31.335938 27.996094 31.390625 C 26.960938 31.011719 27.171875 30.222656 27.582031 29.582031 C 27.5 29.5625 27.414062 29.539062 27.320312 29.519531 Z M 27.320312 29.519531 " fill-opacity="1" fill-rule="evenodd"/><path fill="#00175b" d="M 27.949219 26.832031 C 26.140625 26.058594 24.859375 27.257812 27.3125 28.203125 C 27.707031 28.351562 28.074219 28.480469 28.417969 28.589844 C 27.621094 28.007812 27.816406 27.410156 28.234375 26.949219 C 28.148438 26.914062 28.050781 26.875 27.949219 26.832031 Z M 27.949219 26.832031 " fill-opacity="1" fill-rule="evenodd"/><path fill="#00175b" d="M 29.507812 24.796875 C 28.089844 24.023438 26.953125 24.898438 28.875 25.863281 C 29.050781 25.953125 29.222656 26.035156 29.386719 26.109375 C 28.507812 24.933594 30.042969 25.070312 30.042969 25.070312 C 29.894531 25.003906 29.71875 24.914062 29.507812 24.796875 Z M 29.507812 24.796875 " fill-opacity="1" fill-rule="evenodd"/><path fill="#5e7cfa" d="M 41.589844 43.636719 C 41.582031 43.65625 41.574219 43.671875 41.566406 43.691406 C 41.566406 43.691406 42.867188 43.898438 43.332031 44.570312 C 44.089844 45.664062 44.730469 45.476562 43.457031 47.371094 C 43.769531 46.542969 43.75 46.074219 43.765625 45.941406 C 39.925781 48.226562 38.605469 44.917969 41.46875 43.691406 Z M 41.589844 43.636719 " fill-opacity="1" fill-rule="evenodd"/><path fill="#5e7cfa" d="M 38.871094 40.664062 C 40.03125 40.28125 41.140625 41.007812 41.578125 41.980469 C 41.589844 44.632812 36.539062 44.136719 37.472656 41.585938 C 37.742188 41.113281 38.375 40.976562 38.871094 40.664062 Z M 38.871094 40.664062 " fill-opacity="1" fill-rule="evenodd"/><path fill="#5e7cfa" d="M 36.066406 38.023438 C 37.652344 37.628906 38.679688 38.226562 39.054688 39.019531 C 38.902344 41.203125 34.347656 41.265625 35.082031 38.449219 C 35.4375 38.238281 36.066406 38.023438 36.066406 38.023438 Z M 36.066406 38.023438 " fill-opacity="1" fill-rule="evenodd"/><path fill="#5e7cfa" d="M 32.253906 35.851562 C 32.289062 35.835938 32.324219 35.816406 32.359375 35.800781 L 32.363281 35.796875 C 33.289062 35.328125 33.839844 34.539062 34.78125 34.914062 C 35.457031 35.183594 36.273438 35.875 36.359375 36.8125 C 34.195312 38.980469 31.425781 37.203125 32.253906 35.851562 Z M 32.253906 35.851562 " fill-opacity="1" fill-rule="evenodd"/><path fill="#5e7cfa" d="M 33.738281 33.097656 C 33.519531 32.5625 32.765625 32.179688 31.621094 32.300781 C 30.714844 32.398438 30.375 32.558594 29.945312 32.65625 C 28.183594 34.019531 33.714844 35.21875 33.738281 33.097656 Z M 33.738281 33.097656 " fill-opacity="1" fill-rule="evenodd"/><path fill="#5e7cfa" d="M 31.75 28.875 C 32.539062 28.671875 32.257812 28.015625 30.953125 27.660156 C 28.464844 26.984375 29.582031 28.925781 31.75 28.875 Z M 31.75 28.875 " fill-opacity="1" fill-rule="evenodd"/><path fill="#5e7cfa" d="M 32.503906 30.804688 C 32.578125 30.402344 31.941406 29.96875 30.671875 29.84375 C 29.785156 29.753906 29.417969 29.792969 28.984375 29.785156 C 28.246094 31.394531 32.140625 31.355469 32.503906 30.804688 Z M 32.503906 30.804688 " fill-opacity="1" fill-rule="evenodd"/><path fill="#5e7cfa" d="M 41.269531 26.390625 C 40.726562 24.664062 43.800781 24.457031 44.011719 25.046875 C 43.804688 24.363281 45.6875 24.652344 45.953125 24.765625 C 46.316406 25.429688 46.804688 26.082031 47.058594 26.820312 C 47.058594 26.820312 46.789062 27.804688 45.851562 27.804688 C 44.914062 27.804688 44.476562 27.167969 44.335938 26.449219 C 44.335938 26.449219 44.414062 27.207031 43.996094 27.726562 C 43.617188 28.195312 42.625 27.960938 41.917969 27.109375 C 41.792969 26.871094 41.453125 26.574219 41.269531 26.390625 Z M 41.269531 26.390625 " fill-opacity="1" fill-rule="evenodd"/><path fill="#5e7cfa" d="M 36.800781 19.289062 C 36.800781 19.289062 38.117188 19.980469 38.359375 20.996094 C 36.179688 18.523438 31.398438 19.351562 33.269531 16.796875 C 33.269531 16.796875 30.175781 16.957031 30.734375 14.800781 C 30.734375 14.800781 27.679688 15.699219 25.1875 14.300781 C 25.1875 14.300781 22.242188 14.964844 20.488281 13.710938 C 20.488281 13.710938 18.710938 15.078125 16.125 14.332031 C 16.125 14.332031 10.882812 15.910156 10.578125 20.867188 C 10.578125 20.867188 10.222656 19.335938 10.898438 17.574219 C 10.898438 17.574219 7.660156 21.90625 12.324219 28.609375 C 7.019531 23.167969 8.328125 15.199219 16.015625 13.765625 C 16.171875 12.523438 19.941406 11.804688 20.542969 13.085938 C 20.617188 11.761719 25.707031 12.125 25.335938 13.585938 C 29.078125 11.386719 34.238281 14.640625 34.984375 14.53125 C 39.640625 16.757812 39.859375 21.398438 45.175781 20.542969 C 46.628906 21.75 46.574219 23.089844 46.328125 23.925781 C 44.867188 24.191406 43.355469 23.582031 43.074219 21.988281 C 43.328125 24.226562 41.003906 24.046875 40.003906 22.988281 C 38.800781 21.714844 39.640625 20.496094 36.800781 19.289062 Z M 36.800781 19.289062 " fill-opacity="1" fill-rule="evenodd"/><path fill="#5e7cfa" d="M 45.175781 20.542969 C 40.660156 20.21875 40.371094 18.074219 40.371094 18.074219 C 38.417969 17.554688 38.535156 15.597656 38.535156 15.597656 C 36.277344 15.097656 36.261719 11.964844 36.261719 11.964844 C 35.234375 12.609375 32.082031 12.015625 32.082031 12.015625 C 35.082031 8.269531 36.902344 11.308594 36.902344 11.308594 C 37.457031 11.171875 38.066406 11.824219 38.066406 11.824219 C 38.457031 12.449219 40.316406 14.761719 39.707031 15.265625 C 41.234375 15.960938 41.34375 17.347656 41.34375 17.347656 C 44.730469 18.265625 45.175781 20.542969 45.175781 20.542969 Z M 45.175781 20.542969 " fill-opacity="1" fill-rule="evenodd"/><path fill="#00175b" d="M 46.472656 28.613281 C 46.347656 28.613281 46.25 28.710938 46.25 28.832031 C 46.25 28.953125 46.347656 29.054688 46.472656 29.054688 C 46.59375 29.054688 46.691406 28.953125 46.691406 28.832031 C 46.691406 28.710938 46.59375 28.613281 46.472656 28.613281 Z M 46.472656 28.613281 " fill-opacity="1" fill-rule="evenodd"/><path fill="#00175b" d="M 45.941406 29.183594 C 45.820312 29.183594 45.722656 29.28125 45.722656 29.402344 C 45.722656 29.523438 45.820312 29.621094 45.941406 29.621094 C 46.0625 29.621094 46.160156 29.523438 46.160156 29.402344 C 46.160156 29.28125 46.0625 29.183594 45.941406 29.183594 Z M 45.941406 29.183594 " fill-opacity="1" fill-rule="evenodd"/><path fill="#00175b" d="M 45.847656 28.472656 C 45.703125 28.472656 45.582031 28.59375 45.582031 28.738281 C 45.582031 28.886719 45.703125 29.003906 45.847656 29.003906 C 45.992188 29.003906 46.113281 28.886719 46.113281 28.738281 C 46.113281 28.59375 45.992188 28.472656 45.847656 28.472656 Z M 45.847656 28.472656 " fill-opacity="1" fill-rule="evenodd"/><path fill="#00175b" d="M 41.378906 28.054688 C 41.253906 28.054688 41.15625 28.152344 41.15625 28.273438 C 41.15625 28.394531 41.253906 28.492188 41.378906 28.492188 C 41.5 28.492188 41.597656 28.394531 41.597656 28.273438 C 41.597656 28.152344 41.5 28.054688 41.378906 28.054688 Z M 41.378906 28.054688 " fill-opacity="1" fill-rule="evenodd"/><path fill="#00175b" d="M 40.847656 28.625 C 40.726562 28.625 40.628906 28.722656 40.628906 28.84375 C 40.628906 28.964844 40.726562 29.0625 40.847656 29.0625 C 40.96875 29.0625 41.066406 28.964844 41.066406 28.84375 C 41.066406 28.722656 40.96875 28.625 40.847656 28.625 Z M 40.847656 28.625 " fill-opacity="1" fill-rule="evenodd"/><path fill="#00175b" d="M 40.753906 27.914062 C 40.605469 27.914062 40.488281 28.035156 40.488281 28.179688 C 40.488281 28.324219 40.605469 28.445312 40.753906 28.445312 C 40.898438 28.445312 41.019531 28.324219 41.019531 28.179688 C 41.019531 28.035156 40.898438 27.914062 40.753906 27.914062 Z M 40.753906 27.914062 " fill-opacity="1" fill-rule="evenodd"/><path fill="#00175b" d="M 33.910156 21.398438 C 33.714844 21.398438 33.558594 21.558594 33.558594 21.753906 C 33.558594 21.945312 33.714844 22.105469 33.910156 22.105469 C 34.105469 22.105469 34.261719 21.945312 34.261719 21.753906 C 34.261719 21.558594 34.105469 21.398438 33.910156 21.398438 Z M 33.910156 21.398438 " fill-opacity="1" fill-rule="evenodd"/><path fill="#00175b" d="M 33.0625 22.3125 C 32.867188 22.3125 32.710938 22.46875 32.710938 22.664062 C 32.710938 22.859375 32.867188 23.015625 33.0625 23.015625 C 33.257812 23.015625 33.414062 22.859375 33.414062 22.664062 C 33.414062 22.46875 33.257812 22.3125 33.0625 22.3125 Z M 33.0625 22.3125 " fill-opacity="1" fill-rule="evenodd"/><path fill="#00175b" d="M 32.910156 21.175781 C 32.675781 21.175781 32.484375 21.367188 32.484375 21.601562 C 32.484375 21.835938 32.675781 22.023438 32.910156 22.023438 C 33.144531 22.023438 33.332031 21.835938 33.332031 21.601562 C 33.332031 21.367188 33.144531 21.175781 32.910156 21.175781 Z M 32.910156 21.175781 " fill-opacity="1" fill-rule="evenodd"/><path fill="#00175b" d="M 31.820312 18.371094 C 31.546875 18.371094 31.320312 18.597656 31.320312 18.871094 C 31.320312 19.148438 31.546875 19.371094 31.820312 19.371094 C 32.097656 19.371094 32.320312 19.148438 32.320312 18.871094 C 32.320312 18.597656 32.097656 18.371094 31.820312 18.371094 Z M 31.820312 18.371094 " fill-opacity="1" fill-rule="evenodd"/><path fill="#00175b" d="M 30.617188 19.667969 C 30.339844 19.667969 30.117188 19.890625 30.117188 20.167969 C 30.117188 20.445312 30.339844 20.667969 30.617188 20.667969 C 30.890625 20.667969 31.117188 20.445312 31.117188 20.167969 C 31.117188 19.890625 30.890625 19.667969 30.617188 19.667969 Z M 30.617188 19.667969 " fill-opacity="1" fill-rule="evenodd"/><path fill="#00175b" d="M 30.398438 18.054688 C 30.066406 18.054688 29.796875 18.324219 29.796875 18.65625 C 29.796875 18.988281 30.066406 19.257812 30.398438 19.257812 C 30.734375 19.257812 31.003906 18.988281 31.003906 18.65625 C 31.003906 18.324219 30.734375 18.054688 30.398438 18.054688 Z M 30.398438 18.054688 " fill-opacity="1" fill-rule="evenodd"/><path fill="#00175b" d="M 33.335938 19.695312 C 33.210938 19.695312 33.109375 19.796875 33.109375 19.921875 C 33.109375 20.046875 33.210938 20.148438 33.335938 20.148438 C 33.460938 20.148438 33.566406 20.046875 33.566406 19.921875 C 33.566406 19.796875 33.460938 19.695312 33.335938 19.695312 Z M 33.335938 19.695312 " fill-opacity="1" fill-rule="evenodd"/><path fill="#00175b" d="M 32.789062 20.28125 C 32.664062 20.28125 32.5625 20.382812 32.5625 20.511719 C 32.5625 20.636719 32.664062 20.738281 32.789062 20.738281 C 32.914062 20.738281 33.015625 20.636719 33.015625 20.511719 C 33.015625 20.382812 32.914062 20.28125 32.789062 20.28125 Z M 32.789062 20.28125 " fill-opacity="1" fill-rule="evenodd"/><path fill="#00175b" d="M 32.691406 19.546875 C 32.539062 19.546875 32.417969 19.671875 32.417969 19.824219 C 32.417969 19.972656 32.539062 20.097656 32.691406 20.097656 C 32.84375 20.097656 32.964844 19.972656 32.964844 19.824219 C 32.964844 19.671875 32.84375 19.546875 32.691406 19.546875 Z M 32.691406 19.546875 " fill-opacity="1" fill-rule="evenodd"/><path fill="#5e7cfa" d="M 44.214844 38.960938 C 42.808594 35.375 40.582031 35.734375 42.453125 31.570312 C 42.980469 35.535156 45.714844 32.386719 48.375 33.269531 C 46.0625 33.449219 45.019531 35.597656 42.832031 34.359375 C 42.832031 34.359375 44.1875 36.136719 44.214844 38.960938 Z M 44.214844 38.960938 " fill-opacity="1" fill-rule="evenodd"/></svg>